<svg xmlns="http://www.w3.org/2000/svg" width="1280" height="264" viewBox="0 0 1280 264">
  <defs>
    <style>
      .cls-1 {
        fill: #841b1b;
      }

      .cls-1, .cls-2 {
        fill-rule: evenodd;
      }
    </style>
  </defs>
  <path id="Kabir" class="cls-1" d="M25.408,244.463H67.668v-97.6l67.719,97.6h49.58L100.8,122.833,177.505,24.8H127.3L67.668,100.527V24.8H25.408V244.463ZM322.545,99.911a74.929,74.929,0,0,0-23.718-16.576,68.644,68.644,0,0,0-27.442-5.525q-31.771,0-53.994,24.042t-22.225,61.674q0,36.286,22.969,60.7t54.443,24.416a67.006,67.006,0,0,0,26.028-5q12-5,23.939-16.351v17.173h40.767V81.991H322.545v17.92Zm-10.859,28.671q12.648,13.143,12.651,34.346,0,21.654-12.651,35.018t-31.849,13.365a41.227,41.227,0,0,1-31.329-13.589q-12.726-13.587-12.724-34.644,0-20.906,12.5-34.272t31.4-13.365Q299.037,115.441,311.686,128.582Zm85.2-109.309V244.463H437.35V227.29q11.946,11.349,24.043,16.351a67.694,67.694,0,0,0,26.132,5q31.508,0,54.506-24.416t23-60.7q0-37.632-22.25-61.674T488.72,77.81a68.8,68.8,0,0,0-27.477,5.525A76.662,76.662,0,0,0,437.35,99.911V19.273H396.882ZM511.866,128.806q12.545,13.367,12.544,34.272,0,21.056-12.768,34.644a41.433,41.433,0,0,1-31.434,13.589q-19.263,0-31.957-13.365t-12.693-35.018q0-21.2,12.693-34.346t31.957-13.141Q499.321,115.441,511.866,128.806Zm76.852-106.1a25.065,25.065,0,0,0-7.592,18.368,26.214,26.214,0,0,0,7.667,19.04,24.983,24.983,0,0,0,18.54,7.84A24.63,24.63,0,0,0,625.5,60.264a25.487,25.487,0,0,0,7.594-18.592,25.793,25.793,0,0,0-7.669-18.816A25.744,25.744,0,0,0,588.718,22.707Zm-2.067,221.756h40.767V81.991H586.651V244.463Zm60.6,0h40.469V178.757l-0.15-7.914q0-34.047,6.5-45.695t15.9-11.648q4.626,0,11.8,3.584l12.693-35.093a38.156,38.156,0,0,0-16.576-4.181,36.388,36.388,0,0,0-20.607,6.272q-9.408,6.272-15.083,18.367V81.991H647.249V244.463Z"/>
  <path id="Rec" class="cls-2" d="M754.111,239.463h41.813V146.43h3.827l49.395,93.033h45.709L842.818,141.8q20.9-7.465,31.28-22.027t10.379-36.212q0-20.608-9.4-35.69a53.118,53.118,0,0,0-24.835-21.578q-15.438-6.5-51.832-6.5h-44.3V239.463Zm41.813-178.9h11.463q16.674,0,22.925,2.324a20.657,20.657,0,0,1,9.975,7.641,21.275,21.275,0,0,1,3.721,12.509q0,12.138-7.518,17.381t-27.465,5.243h-13.1v-45.1ZM1079.47,162.259q0-40.32-24.04-64.884T993.01,72.81q-36.139,0-60.105,24.565t-23.968,61.748q0,36.286,24.042,60.4t62.271,24.117q24.645,0,42.56-8.736t30.76-26.954l-34.34-16.128a54.376,54.376,0,0,1-39.279,15.979q-19.116,0-31.434-10.23T948.36,170.024h130.96ZM950.152,137.918q6.882-15.081,14.959-21.056a48.812,48.812,0,0,1,29.915-9.557,46.157,46.157,0,0,1,27.594,8.512,40.952,40.952,0,0,1,15.94,22.1H950.152ZM1232.21,82.442q-19.26-9.632-43.46-9.632-26.13,0-47.26,11.349a83.662,83.662,0,0,0-44.73,74.665q0,34.047,24.27,59.434t67.13,25.386q47.625,0,73.76-33.989l-32.14-22.01q-15.255,18.669-42.61,18.666-22.125,0-35.73-13.12-13.62-13.118-13.61-33.846,0-21.318,14.13-34.962t37-13.643q12.555,0,21.9,3.882t18.92,13.888l33.94-18.666A82.544,82.544,0,0,0,1232.21,82.442Z"/>
</svg>
